<svg width="2559" height="972" viewBox="0 0 2559 972" fill="none" xmlns="http://www.w3.org/2000/svg">
<path d="M0.368942 872.711L217.54 870.949L245.733 286.835L273.044 288.597L289.783 197.852L354.978 246.308V249.997L361.916 250.658V244.381C361.916 244.381 456.735 260.735 462.021 266.517L475.071 275.272L459.543 797.274L476.062 797.77L478.705 619.364L489.608 611.93L489.112 601.688L496.215 598.549L503.979 600.862L505.631 537.429L518.846 520.249L528.097 230.67H540.817V226.21L618.291 225.549L620.108 222.41L631.011 221.584L677.264 256.109L671.813 446.243H692.462V440.957L695.27 438.314L712.945 439.14V448.391H718.561L719.057 537.759H731.281L730.455 562.868L741.192 588.142L739.705 765.061L744 765.557L745.982 486.385L764.649 472.674L841.463 477.795V524.379H846.584L843.115 529.004C843.115 529.004 850.714 571.293 850.218 589.133L856.826 589.298V592.767H861.947V692.377H873.676V627.127L885.9 627.457L875.658 624.484L906.714 585.169L930.832 617.712L961.557 618.373L985.51 615.565L986.171 523.884L1018.71 516.285L1053.9 520.415L1054.89 367.614C1054.89 367.614 1046.96 364.641 1054.89 361.337L1054.56 353.738C1054.56 353.738 1046.3 349.773 1054.89 345.644L1054.73 328.134C1054.73 328.134 1048.45 325.987 1054.73 323.343L1054.4 298.564H1052.25V292.617H1055.55C1055.55 292.617 1055.06 287.331 1058.2 287.166C1061.34 287.001 1060.01 293.113 1060.01 293.113H1062.33V299.39H1059.35V323.838C1059.35 323.838 1065.3 324.994 1059.19 327.803L1059.02 344.322C1059.02 344.322 1075.21 339.366 1104.45 342.34L1116.18 344.157L1117.5 187.391L1123.94 177.81H1127.74L1127.08 169.385L1131.87 168.063L1131.05 159.143L1135.84 157.987V147.084L1196.46 148.075L1196.96 160.299L1200.92 162.281L1201.75 169.715L1206.04 171.862L1205.55 179.956L1210.51 180.947L1215.63 190.198L1214.8 392.226L1220.09 405.772L1221.08 433.524L1285.34 443.766L1318.71 422.787L1317.22 235.956H1320.85L1320.52 224.227L1371.57 225.879L1371.73 213.985H1378.01V226.044L1417.16 225.879L1416.99 213.49H1422.94V227.036H1467.38L1469.36 324.664L1493.48 316.404V250.823L1549.15 240.912L1547.33 79.521L1572.11 28.312L1577.06 29.634L1576.57 0.0650024H1579.05L1582.19 31.451L1641.65 54.743L1644.79 187.391L1772.82 181.609L1779.59 360.51L1811.64 361.666L1813.45 406.598L1824.85 409.737L1827 491.011L1834.93 492.828L1839.22 680.319L1869.62 679.328L1857.06 260.9L1870.77 258.587L1866.14 132.877L1875.39 129.408L1873.08 87.119L1879.19 82.824L1878.53 76.382L1895.71 64.488H1953.2V57.054H1963.94V65.644H1975.33V124.617L1981.61 129.242L1982.11 134.198L1986.24 135.52L1990.37 257.1L2003.91 262.056L2005.89 354.067L2052.31 360.014L2054.79 436.497H2060.57V427.412L2075.6 427.577L2075.93 436.662L2125.33 441.122L2124.83 433.028H2137.55L2149.94 709.227H2159.68L2160.51 715.504L2164.14 716.165L2164.31 711.705H2166.95L2166.79 699.811L2182.15 697.994L2181.32 694.36L2185.45 693.038L2179.34 543.706L2304.23 521.405L2364.52 525.039L2367.82 606.974L2391.94 608.791L2401.85 796.117L2416.06 796.943L2412.26 708.566L2417.38 705.593L2416.89 700.142L2521.45 701.133L2521.78 707.41H2529.22L2529.71 711.705H2532.69L2535.66 780.094H2558.95V971.5H0.36895C0.36895 971.5 0.368942 868.816 0.368942 872.711Z" fill="black"/>
</svg>
